<?xml version="1.0" encoding="iso-8859-1"?>
<!-- Uploaded to: SVG Repo, www.svgrepo.com, Generator: SVG Repo Mixer Tools -->
<svg height="800px" width="800px" version="1.1" id="Layer_1" xmlns="http://www.w3.org/2000/svg" xmlns:xlink="http://www.w3.org/1999/xlink" 
	 viewBox="0 0 512 512" xml:space="preserve">
<path style="fill:#A9A8AE;" d="M47.716,450.721c31.762,31.762,73.468,47.64,115.189,47.635
	c41.711-0.003,83.437-15.882,115.192-47.635L477.976,250.84c45.367-45.368,45.365-119.189-0.003-164.557
	c-21.975-21.977-51.196-34.08-82.276-34.08s-60.301,12.103-82.279,34.08L129.992,269.706c-27.221,27.221-27.221,71.514,0,98.737
	c27.222,27.219,71.515,27.221,98.737-0.002L349.511,247.66c9.089-9.089,9.089-23.823,0-32.913c-9.087-9.087-23.823-9.087-32.911,0
	L195.818,335.529c-9.073,9.075-23.837,9.076-32.913,0.003c-9.075-9.076-9.076-23.84-0.002-32.913l183.426-183.423
	c13.186-13.186,30.719-20.448,49.368-20.448c18.649,0,36.179,7.261,49.365,20.448c27.222,27.221,27.222,71.514,0.003,98.734
	L245.185,417.808c-45.368,45.367-119.19,45.37-164.559,0c-21.978-21.977-34.083-51.197-34.083-82.278s12.105-60.303,34.083-82.281
	L280.503,53.371c9.089-9.087,9.089-23.823,0-32.911c-9.087-9.087-23.823-9.087-32.911,0L47.716,220.339
	C16.945,251.107,0,292.017,0,335.531S16.945,419.953,47.716,450.721z"/>
<path style="fill:#C3C3C7;" d="M477.973,86.284c-11.616-11.616-25.267-20.442-40.137-26.212c-13.262-5.146-27.487-7.868-42.14-7.868
	c-31.081,0-60.301,12.103-82.279,34.08L129.992,269.706c-27.132,27.132-27.213,71.222-0.258,98.466
	c0.088,0.088,0.169,0.182,0.258,0.27c27.222,27.219,71.515,27.221,98.737-0.002l120.782-120.782c9.089-9.089,9.089-23.823,0-32.913
	c-9.087-9.087-23.823-9.087-32.911,0L195.818,335.528c-9.073,9.075-23.837,9.076-32.913,0.003c-0.088-0.088-0.163-0.188-0.251-0.278
	c-8.808-9.096-8.735-23.652,0.25-32.635l183.426-183.421c13.186-13.186,30.719-20.448,49.368-20.448
	c1.131,0,2.259,0.029,3.381,0.082c17.378,0.824,33.599,7.978,45.984,20.366c27.222,27.221,27.222,71.514,0.003,98.734
	L245.185,417.808c-45.368,45.367-119.19,45.37-164.559,0c-0.088-0.088-0.169-0.182-0.258-0.27
	c-21.811-21.946-33.825-51.051-33.825-82.008c0-31.081,12.105-60.303,34.083-82.281L280.503,53.371
	c9.089-9.087,9.089-23.823,0-32.911c-9.089-9.087-23.824-9.087-32.911,0L47.716,220.339C16.945,251.107,0,292.017,0,335.531
	c0,43.388,16.851,84.184,47.455,114.924c0.088,0.088,0.172,0.178,0.261,0.267c31.762,31.762,73.468,47.64,115.189,47.635
	c41.711-0.003,83.437-15.882,115.192-47.635L477.976,250.84C523.343,205.472,523.341,131.652,477.973,86.284z"/>
<g>
	<path style="fill:#A9A8AE;" d="M313.418,86.284L129.992,269.706c-27.132,27.132-27.213,71.222-0.258,98.466l32.919-32.919
		c-8.808-9.096-8.735-23.652,0.25-32.635l183.426-183.421c13.186-13.186,30.719-20.448,49.368-20.448
		c1.131,0,2.259,0.029,3.381,0.082l38.759-38.759c-13.262-5.146-27.487-7.868-42.14-7.868
		C364.616,52.204,335.396,64.307,313.418,86.284z"/>
	<path style="fill:#A9A8AE;" d="M46.544,335.531c0-31.081,12.105-60.303,34.083-82.281L280.503,53.371
		c9.089-9.087,9.089-23.823,0-32.911c-9.089-9.087-23.824-9.087-32.911,0L47.716,220.339C16.945,251.107,0,292.017,0,335.531
		c0,43.388,16.851,84.184,47.455,114.924l32.916-32.916C58.559,395.593,46.544,366.487,46.544,335.531z"/>
</g>
</svg>